<?xml version="1.0" encoding="UTF-8"?>
<svg xmlns="http://www.w3.org/2000/svg" version="1.1" viewBox="0 0 893.4 677.3">
  <defs>
    <style>
      .cls-1 {
        fill: #fff;
      }
    </style>
  </defs>
  <!-- Generator: Adobe Illustrator 28.7.1, SVG Export Plug-In . SVG Version: 1.2.0 Build 142)  -->
  <g>
    <g id="Layer_1">
      <g id="Layer_1-2" data-name="Layer_1">
        <path class="cls-1" d="M290.9,623.2c-126.8,0-229.9-103.2-229.9-229.9h108.2c0,67.1,54.6,121.7,121.7,121.7s121.7-54.6,121.7-121.7h108.2c0,126.8-103.1,229.9-229.9,229.9h0Z"/>
        <path class="cls-1" d="M520.9,398.9h-108.2c0-74.4,38.2-144.7,102.1-187.9,64.4-43.6,144.4-52.9,214-25,48.1,19.3,88.8,55,114.4,100.6l-94.3,53c-13.6-24.1-35-43-60.2-53.1-36.3-14.5-78.6-9.2-113.2,14.2-34.1,23.1-54.5,59.9-54.5,98.3h0Z"/>
        <g>
          <path class="cls-1" d="M169.2,168.4v-4.1c0-61.6-48.5-111.6-108.3-111.6v223.5c24.5-45.8,62.3-83.5,108.3-107.8Z"/>
          <path class="cls-1" d="M162.7,393.3h6.5v-39.8c-4.2,12.5-6.5,25.9-6.5,39.8Z"/>
        </g>
        <path class="cls-1" d="M641.6,621.8c-72.7,0-140.6-33.5-183.6-91.4-28.1-37.8-44.1-84.3-45.2-131.5h0c0-67.1-54.6-121.7-121.7-121.7s-121.7,54.6-121.7,121.7H61c0-126.8,103.1-229.9,229.9-229.9s226.9,100.1,229.9,224.3h0c0,26,8.5,51.8,24,72.5,24.2,32.6,62.1,49.9,104,47.5,41.8-2.4,79-24.7,99.3-59.7l93.6,54.4c-38.7,66.6-108.5,109-186.8,113.4-4.5.2-8.9.4-13.4.4h0Z"/>
      </g>
    </g>
  </g>
</svg>