<?xml version="1.0" encoding="UTF-8"?>
<svg xmlns="http://www.w3.org/2000/svg" version="1.1" viewBox="0 0 893.4 677.32">
  <defs>
    <style>
      .cls-1 {
        fill: #231f20;
      }
    </style>
  </defs>
  <!-- Generator: Adobe Illustrator 28.7.1, SVG Export Plug-In . SVG Version: 1.2.0 Build 142)  -->
  <g>
    <g id="Layer_1">
      <path class="cls-1" d="M290.94,623.25c-126.79,0-229.93-103.15-229.93-229.94h108.21c0,67.12,54.61,121.73,121.73,121.73s121.73-54.61,121.73-121.73h108.21c0,126.79-103.15,229.94-229.94,229.94Z"/>
      <path class="cls-1" d="M520.87,398.92l-108.21-.02c.01-74.41,38.18-144.66,102.1-187.91,64.37-43.56,144.39-52.92,214.04-25.04,48.14,19.27,88.76,55,114.37,100.62l-94.35,52.98c-13.57-24.15-34.96-43.03-60.24-53.15-36.27-14.52-78.58-9.22-113.18,14.2-34.14,23.1-54.53,59.86-54.54,98.32Z"/>
      <g>
        <path class="cls-1" d="M169.23,168.43v-4.08c0-61.63-48.47-111.59-108.26-111.59v223.49c24.53-45.81,62.35-83.47,108.26-107.82Z"/>
        <path class="cls-1" d="M162.73,393.31h0s6.5,0,6.5,0v-39.76c-4.19,12.49-6.5,25.85-6.5,39.76Z"/>
      </g>
      <path class="cls-1" d="M641.56,621.78c-72.74,0-140.6-33.55-183.58-91.39-28.1-37.82-44.06-84.31-45.24-131.47h-.07c0-67.12-54.61-121.73-121.73-121.73s-121.73,54.61-121.73,121.73H61c0-126.79,103.15-229.94,229.93-229.94s226.88,100.12,229.87,224.33h.07c0,25.99,8.52,51.76,23.96,72.55,24.19,32.56,62.12,49.89,104,47.52,41.85-2.36,78.98-24.68,99.33-59.7l93.56,54.36c-38.68,66.57-108.51,108.96-186.79,113.37-4.47.25-8.93.38-13.37.38Z"/>
    </g>
  </g>
</svg>